<?xml version="1.0" standalone="no"?>
<!DOCTYPE svg PUBLIC "-//W3C//DTD SVG 20010904//EN"
 "http://www.w3.org/TR/2001/REC-SVG-20010904/DTD/svg10.dtd">
<svg version="1.0" xmlns="http://www.w3.org/2000/svg"
 width="140.000000pt" height="140.000000pt" viewBox="0 0 140.000000 140.000000"
 preserveAspectRatio="xMidYMid meet">

<g transform="translate(0.000000,140.000000) scale(0.100000,-0.100000)"
fill="#FFFF" stroke="none">
<path d="M584 1380 c-139 -25 -265 -92 -369 -195 -82 -82 -135 -169 -172 -280
-23 -69 -26 -97 -26 -205 0 -108 3 -136 26 -205 37 -111 90 -198 172 -280 82
-82 169 -135 280 -172 69 -23 97 -26 205 -26 108 0 136 3 205 26 111 37 198
90 280 172 82 82 135 169 172 280 23 69 26 97 26 205 0 108 -3 136 -26 205
-37 111 -90 198 -172 280 -126 126 -278 193 -455 200 -52 2 -118 0 -146 -5z
m73 -332 l43 -42 44 43 44 44 114 -28 c62 -15 118 -34 124 -42 7 -8 24 -64 39
-124 l28 -111 -44 -44 -43 -44 43 -44 44 -44 -28 -114 c-15 -62 -33 -118 -39
-124 -6 -6 -62 -24 -124 -39 l-114 -28 -44 44 -44 43 -44 -43 -44 -44 -114 28
c-62 15 -118 34 -124 42 -7 8 -24 64 -39 124 l-28 111 44 44 43 44 -43 44 -44
44 28 114 c15 62 32 118 37 123 8 9 195 62 228 64 8 1 34 -18 57 -41z"/>
<path d="M523 997 c-23 -7 -44 -15 -47 -18 -3 -3 17 -27 44 -54 l50 -49 42 41
42 42 -24 26 c-26 27 -43 29 -107 12z"/>
<path d="M770 985 l-24 -26 42 -42 42 -41 50 49 c27 27 47 52 42 56 -8 7 -94
29 -115 29 -7 0 -24 -11 -37 -25z"/>
<path d="M416 921 c-2 -3 -10 -32 -17 -64 -12 -57 -12 -58 14 -85 l27 -27 42
42 42 42 -52 49 c-29 27 -54 47 -56 43z"/>
<path d="M924 879 l-48 -49 42 -42 42 -43 26 27 c27 26 27 27 14 88 -7 33 -16
63 -20 65 -4 2 -29 -18 -56 -46z"/>
<path d="M655 870 l-39 -40 42 -43 42 -42 41 41 40 40 -42 42 c-23 23 -42 42
-43 42 -1 0 -20 -18 -41 -40z"/>
<path d="M525 740 l-39 -40 42 -43 42 -42 42 42 41 41 -42 41 c-24 23 -44 41
-45 41 -1 0 -20 -18 -41 -40z"/>
<path d="M785 740 l-39 -40 40 -41 40 -40 43 42 42 42 -38 39 c-20 21 -40 38
-43 38 -3 0 -24 -18 -45 -40z"/>
<path d="M410 625 c-22 -23 -22 -27 -10 -85 7 -33 16 -63 20 -65 4 -2 29 18
55 45 l49 50 -39 40 c-21 22 -42 40 -45 40 -4 0 -17 -11 -30 -25z"/>
<path d="M655 610 l-39 -40 40 -41 40 -40 43 42 42 42 -38 39 c-20 21 -40 38
-43 38 -3 0 -24 -18 -45 -40z"/>
<path d="M915 610 l-39 -40 49 -50 c26 -27 51 -47 55 -45 4 2 12 29 19 60 12
52 11 57 -11 84 -13 17 -25 30 -28 30 -3 1 -24 -17 -45 -39z"/>
<path d="M516 471 c-26 -27 -44 -51 -39 -54 4 -2 34 -11 66 -18 57 -12 58 -12
85 14 l26 27 -39 40 c-21 22 -42 40 -45 40 -3 0 -27 -22 -54 -49z"/>
<path d="M785 480 l-39 -40 26 -27 c27 -26 28 -26 85 -14 32 7 62 16 66 18 8
5 -81 103 -93 103 -3 0 -24 -18 -45 -40z"/>
</g>
</svg>
